ffmpeg version 3.4.8-0ubuntu0.2 Copyright (c) 2000-2020 the FFmpeg developers
  built with gcc 7 (Ubuntu 7.5.0-3ubuntu1~18.04)
  configuration: --prefix=/usr --extra-version=0ubuntu0.2 --toolchain=hardened --libdir=/usr/lib/x86_64-linux-gnu --incdir=/usr/include/x86_64-linux-gnu --enable-gpl --disable-stripping --enable-avresample --enable-avisynth --enable-gnutls --enable-ladspa --enable-libass --enable-libbluray --enable-libbs2b --enable-libcaca --enable-libcdio --enable-libflite --enable-libfontconfig --enable-libfreetype --enable-libfribidi --enable-libgme --enable-libgsm --enable-libmp3lame --enable-libmysofa --enable-libopenjpeg --enable-libopenmpt --enable-libopus --enable-libpulse --enable-librubberband --enable-librsvg --enable-libshine --enable-libsnappy --enable-libsoxr --enable-libspeex --enable-libssh --enable-libtheora --enable-libtwolame --enable-libvorbis --enable-libvpx --enable-libwavpack --enable-libwebp --enable-libx265 --enable-libxml2 --enable-libxvid --enable-libzmq --enable-libzvbi --enable-omx --enable-openal --enable-opengl --enable-sdl2 --enable-libdc1394 --enable-libdrm --enable-libiec61883 --enable-chromaprint --enable-frei0r --enable-libopencv --enable-libx264 --enable-shared
  libavutil      55. 78.100 / 55. 78.100
  libavcodec     57.107.100 / 57.107.100
  libavformat    57. 83.100 / 57. 83.100
  libavdevice    57. 10.100 / 57. 10.100
  libavfilter     6.107.100 /  6.107.100
  libavresample   3.  7.  0 /  3.  7.  0
  libswscale      4.  8.100 /  4.  8.100
  libswresample   2.  9.100 /  2.  9.100
  libpostproc    54.  7.100 / 54.  7.100
[rawvideo @ 0x55f06c35ba20] Estimating duration from bitrate, this may be inaccurate
Input #0, rawvideo, from '../../SVC-Encoder-20220109T061506Z-001/SVC-Encoder/Dataset/RollerCoaster/ERP_8x8/tile_yuv/Tile_52_480x240.yuv':
  Duration: 00:00:10.00, start: 0.000000, bitrate: 41472 kb/s
    Stream #0:0: Video: rawvideo (I420 / 0x30323449), yuv420p, 480x240, 41472 kb/s, 30 tbr, 30 tbn, 30 tbc
Stream mapping:
  Stream #0:0 -> #0:0 (rawvideo (native) -> h264 (libx264))
Press [q] to stop, [?] for help
[libx264 @ 0x55f06c368c60] using cpu capabilities: MMX2 SSE2Fast LZCNT SSSE3 SSE4.2 AVX
[libx264 @ 0x55f06c368c60] profile High, level 2.1
Output #0, rawvideo, to 'RollerCoaster_Tile_52_480x240_x264_QP_32.h264':
  Metadata:
    encoder         : Lavf57.83.100
    Stream #0:0: Video: h264 (libx264), yuv420p, 480x240, q=-1--1, 30 fps, 30 tbn, 30 tbc
    Metadata:
      encoder         : Lavc57.107.100 libx264
    Side data:
      cpb: bitrate max/min/avg: 0/0/0 buffer size: 0 vbv_delay: -1
frame=  284 fps=0.0 q=38.0 PSNR=Y:nan U:nan V:nan *:nan size=      24kB time=00:00:08.03 bitrate=  24.4kbits/s speed=15.6x    frame=  300 fps=0.0 q=38.0 LPSNR=Y:inf U:inf V:inf *:inf size=      31kB time=00:00:09.93 bitrate=  25.2kbits/s speed=13.8x    
video:31kB audio:0kB subtitle:0kB other streams:0kB global headers:0kB muxing overhead: 0.000000%
[libx264 @ 0x55f06c368c60] frame I:2     Avg QP:30.17  size:  2244  PSNR Mean Y:45.30 U:46.28 V:45.83 Avg:45.54 Global:45.50
[libx264 @ 0x55f06c368c60] frame P:76    Avg QP:30.87  size:   190  PSNR Mean Y:44.45 U:46.03 V:45.89 Avg:44.88 Global:44.86
[libx264 @ 0x55f06c368c60] frame B:222   Avg QP:37.55  size:    56  PSNR Mean Y:44.01 U:45.87 V:45.80 Avg:44.53 Global:44.50
[libx264 @ 0x55f06c368c60] consecutive B-frames:  0.7%  1.3%  2.0% 96.0%
[libx264 @ 0x55f06c368c60] mb I  I16..4: 12.4% 75.8% 11.8%
[libx264 @ 0x55f06c368c60] mb P  I16..4:  0.9%  1.4%  0.0%  P16..4: 16.2%  1.6%  0.2%  0.0%  0.0%    skip:79.6%
[libx264 @ 0x55f06c368c60] mb B  I16..4:  0.0%  0.0%  0.0%  B16..8:  7.3%  0.1%  0.0%  direct: 0.0%  skip:92.6%  L0:44.4% L1:55.4% BI: 0.2%
[libx264 @ 0x55f06c368c60] 8x8 transform intra:68.2% inter:89.9%
[libx264 @ 0x55f06c368c60] coded y,uvDC,uvAC intra: 9.0% 22.7% 7.4% inter: 0.3% 0.8% 0.0%
[libx264 @ 0x55f06c368c60] i16 v,h,dc,p: 44% 38% 14%  4%
[libx264 @ 0x55f06c368c60] i8 v,h,dc,ddl,ddr,vr,hd,vl,hu: 33% 18% 47%  0%  0%  0%  1%  0%  1%
[libx264 @ 0x55f06c368c60] i4 v,h,dc,ddl,ddr,vr,hd,vl,hu:  7% 38% 21%  0%  6%  1% 23%  1%  3%
[libx264 @ 0x55f06c368c60] i8c dc,h,v,p: 79% 16%  4%  1%
[libx264 @ 0x55f06c368c60] Weighted P-Frames: Y:0.0% UV:0.0%
[libx264 @ 0x55f06c368c60] ref P L0: 60.1% 14.7% 18.1%  7.2%
[libx264 @ 0x55f06c368c60] ref B L0: 67.6% 25.5%  7.0%
[libx264 @ 0x55f06c368c60] ref B L1: 80.5% 19.5%
[libx264 @ 0x55f06c368c60] PSNR Mean Y:44.133 U:45.916 V:45.821 Avg:44.623 Global:44.592 kb/s:25.01
